<svg xmlns="http://www.w3.org/2000/svg" viewBox="0 0 1000 1000"><defs><style>.cls-1{fill:#0097f4;}.cls-2{fill:#fff;}</style></defs><title>ubuntuDDE Official Symbol</title><g id="ubuntuDDE_Official_Symbol" data-name="ubuntuDDE Official Symbol"><circle class="cls-1" cx="495" cy="503.5" r="260"/><rect class="cls-2" x="401.44" y="414.9" width="269.59" height="7.93" transform="translate(272.71 -208.47) rotate(29.22)"/><rect class="cls-2" x="390.87" y="434.23" width="269.61" height="7.93" transform="translate(280.81 -200.86) rotate(29.22)"/><rect class="cls-2" x="274.39" y="495.63" width="253.8" height="7.93" transform="translate(-98.4 900.76) rotate(-89.99)"/><rect class="cls-2" x="296.41" y="495.43" width="253.82" height="7.93" transform="translate(-76.18 922.59) rotate(-89.99)"/><circle class="cls-1" cx="414.86" cy="362.37" r="57"/><rect class="cls-2" x="392.35" y="545.58" width="265.62" height="7.93" transform="translate(-200.64 323.69) rotate(-29.01)"/><rect class="cls-2" x="403.21" y="564.74" width="265.64" height="7.93" transform="translate(-208.57 331.37) rotate(-29.01)"/><circle class="cls-1" cx="415.86" cy="626.28" r="57"/><circle class="cls-1" cx="646.78" cy="495.33" r="57"/><circle class="cls-2" cx="415" cy="362.5" r="50"/><circle class="cls-2" cx="647" cy="495.5" r="50"/><circle class="cls-2" cx="416" cy="626.5" r="50"/></g></svg>