<svg xmlns="http://www.w3.org/2000/svg" viewBox="0 0 1000 1000"><defs><style>.cls-1{fill:#f4f4f4;}.cls-2{fill:#0097f4;}</style></defs><title>ubuntuDDE Official Logo White</title><g id="ubuntuDDE_Official_Logo_White" data-name="ubuntuDDE Official Logo White"><circle class="cls-1" cx="247.28" cy="500" r="116"/><rect class="cls-2" x="205.54" y="460.47" width="120.28" height="3.54" transform="matrix(0.87, 0.49, -0.49, 0.87, 259.46, -70.87)"/><rect class="cls-2" x="200.82" y="469.1" width="120.29" height="3.54" transform="translate(263.07 -67.48) rotate(29.22)"/><rect class="cls-2" x="148.85" y="496.49" width="113.24" height="3.54" transform="translate(-292.84 703.6) rotate(-89.99)"/><rect class="cls-2" x="158.68" y="496.4" width="113.24" height="3.54" transform="translate(-282.92 713.34) rotate(-89.99)"/><circle class="cls-1" cx="211.52" cy="437.03" r="25.43"/><rect class="cls-2" x="201.48" y="518.77" width="118.51" height="3.54" transform="translate(-219.76 191.8) rotate(-29.01)"/><rect class="cls-2" x="206.33" y="527.32" width="118.52" height="3.54" transform="translate(-223.3 195.22) rotate(-29.01)"/><circle class="cls-1" cx="211.97" cy="554.78" r="25.43"/><circle class="cls-1" cx="314.99" cy="496.35" r="25.43"/><circle class="cls-2" cx="211.58" cy="437.09" r="22.31"/><circle class="cls-2" cx="315.09" cy="496.43" r="22.31"/><circle class="cls-2" cx="212.03" cy="554.88" r="22.31"/><path class="cls-1" d="M441,533q-2.88.72-7.61,1.53a65.21,65.21,0,0,1-10.93.81,23.17,23.17,0,0,1-9.09-1.58,14.58,14.58,0,0,1-5.94-4.45,18,18,0,0,1-3.24-6.8,35.39,35.39,0,0,1-1-8.68V487.58h8.37v24.48q0,8.55,2.7,12.24t9.09,3.69q1.35,0,2.79-.09c1-.06,1.86-.14,2.7-.23s1.6-.17,2.29-.26a7.39,7.39,0,0,0,1.49-.32V487.58H441Z"/><path class="cls-1" d="M463.73,489.65a22.53,22.53,0,0,1,4.63-2.07,21.78,21.78,0,0,1,7.16-1.08,21.19,21.19,0,0,1,9,1.8,18.63,18.63,0,0,1,6.62,5,22.19,22.19,0,0,1,4.09,7.74,33.31,33.31,0,0,1,1.4,9.9,29.57,29.57,0,0,1-1.67,10.22,21.44,21.44,0,0,1-4.72,7.69,20.83,20.83,0,0,1-7.38,4.86,26.22,26.22,0,0,1-9.72,1.71,58.92,58.92,0,0,1-10.35-.81q-4.5-.81-7.38-1.62V466l8.37-1.44Zm0,37.44a25.54,25.54,0,0,0,3.55.67,41.49,41.49,0,0,0,5.72.32,13.92,13.92,0,0,0,10.8-4.45q4.05-4.46,4.05-12.65a30.24,30.24,0,0,0-.72-6.75,15.11,15.11,0,0,0-2.34-5.44,11.36,11.36,0,0,0-4.19-3.61,13.57,13.57,0,0,0-6.16-1.3,16.58,16.58,0,0,0-6.3,1.17,17.23,17.23,0,0,0-4.41,2.43Z"/><path class="cls-1" d="M545.63,533q-2.88.72-7.61,1.53a65.3,65.3,0,0,1-10.93.81,23.17,23.17,0,0,1-9.09-1.58,14.58,14.58,0,0,1-5.94-4.45,18,18,0,0,1-3.24-6.8,35.39,35.39,0,0,1-1-8.68V487.58h8.37v24.48q0,8.55,2.7,12.24T528,528q1.35,0,2.79-.09c1-.06,1.86-.14,2.7-.23s1.6-.17,2.29-.26a7.39,7.39,0,0,0,1.49-.32V487.58h8.37Z"/><path class="cls-1" d="M560,488.93q2.88-.72,7.65-1.53a66.19,66.19,0,0,1,11-.81,23.71,23.71,0,0,1,9.27,1.58,14.4,14.4,0,0,1,5.89,4.41,17,17,0,0,1,3.11,6.79,39.42,39.42,0,0,1,.9,8.73v26.28h-8.37V509.9a39.91,39.91,0,0,0-.59-7.38,12.48,12.48,0,0,0-1.93-4.95,7.65,7.65,0,0,0-3.6-2.74,15.58,15.58,0,0,0-5.58-.86q-1.35,0-2.79.09c-1,.06-1.88.14-2.75.23s-1.65.19-2.34.31l-1.48.27v39.51H560Z"/><path class="cls-1" d="M619.52,487.58h17.73v7H619.52v21.6a25.91,25.91,0,0,0,.54,5.8,8.6,8.6,0,0,0,1.62,3.6,5.76,5.76,0,0,0,2.7,1.85,12,12,0,0,0,3.78.54,17.49,17.49,0,0,0,6.07-.86c1.53-.56,2.6-1,3.2-1.21l1.62,6.93a31.23,31.23,0,0,1-4.41,1.57,25.07,25.07,0,0,1-7.2,1,22,22,0,0,1-7.88-1.21,11.54,11.54,0,0,1-5-3.65,14.56,14.56,0,0,1-2.66-6,39.36,39.36,0,0,1-.76-8.23V474.53l8.37-1.44Z"/><path class="cls-1" d="M685.13,533c-1.93.48-4.46,1-7.61,1.53a65.34,65.34,0,0,1-10.94.81,23.15,23.15,0,0,1-9.08-1.58,14.45,14.45,0,0,1-5.94-4.45,17.74,17.74,0,0,1-3.24-6.8,34.91,34.91,0,0,1-1-8.68V487.58h8.37v24.48q0,8.55,2.7,12.24c1.8,2.46,4.82,3.69,9.09,3.69.9,0,1.82,0,2.79-.09s1.85-.14,2.7-.23,1.6-.17,2.29-.26a7.25,7.25,0,0,0,1.48-.32V487.58h8.38Z"/><path class="cls-1" d="M751.27,503.15a36.15,36.15,0,0,1-2.52,14.09,26,26,0,0,1-7.11,9.89,30,30,0,0,1-11,5.86,48.29,48.29,0,0,1-14,1.93q-3.78,0-8.32-.32a49.32,49.32,0,0,1-8.24-1.21V472.91a49.32,49.32,0,0,1,8.24-1.21q4.55-.31,8.32-.32a48.63,48.63,0,0,1,14,1.93,30.16,30.16,0,0,1,11,5.86,26,26,0,0,1,7.11,9.89A36.18,36.18,0,0,1,751.27,503.15Zm-33.93,24.12q12.42,0,18.54-6.35T742,503.15q0-11.43-6.12-17.77T717.34,479c-2.46,0-4.36,0-5.71.09s-2.3.12-2.84.18V527c.54.06,1.49.12,2.84.18S714.88,527.27,717.34,527.27Z"/><path class="cls-1" d="M815.44,503.15a36.15,36.15,0,0,1-2.52,14.09,26,26,0,0,1-7.11,9.89,30,30,0,0,1-11,5.86,48.29,48.29,0,0,1-14,1.93q-3.78,0-8.32-.32a49.32,49.32,0,0,1-8.24-1.21V472.91a49.32,49.32,0,0,1,8.24-1.21q4.54-.31,8.32-.32a48.63,48.63,0,0,1,14,1.93,30.16,30.16,0,0,1,11,5.86,26,26,0,0,1,7.11,9.89A36.18,36.18,0,0,1,815.44,503.15Zm-33.93,24.12q12.42,0,18.54-6.35t6.12-17.77q0-11.43-6.12-17.77T781.51,479c-2.46,0-4.36,0-5.71.09s-2.3.12-2.84.18V527c.54.06,1.49.12,2.84.18S779.05,527.27,781.51,527.27Z"/><path class="cls-1" d="M828.4,534.38V472h38.07v7.47H837.13V498h26.1v7.29h-26.1v21.6h31.59v7.47Z"/></g></svg>