<svg xmlns="http://www.w3.org/2000/svg" viewBox="0 0 1000 1000"><defs><style>.cls-1{fill:#f4f4f4;}.cls-2{fill:#0097f4;}</style></defs><title>ubuntuDDE Official Symbol White</title><g id="ubuntuDDE_Official_Symbol_White" data-name="ubuntuDDE Official Symbol White"><circle class="cls-1" cx="500" cy="500" r="260"/><rect class="cls-2" x="406.44" y="411.4" width="269.59" height="7.93" transform="translate(271.64 -211.36) rotate(29.22)"/><rect class="cls-2" x="395.87" y="430.73" width="269.61" height="7.93" transform="translate(279.73 -203.74) rotate(29.22)"/><rect class="cls-2" x="279.39" y="492.13" width="253.8" height="7.93" transform="translate(-89.9 902.26) rotate(-89.99)"/><rect class="cls-2" x="301.41" y="491.93" width="253.82" height="7.93" transform="translate(-67.68 924.09) rotate(-89.99)"/><circle class="cls-1" cx="419.86" cy="358.87" r="57"/><rect class="cls-2" x="397.35" y="542.08" width="265.62" height="7.93" transform="translate(-198.31 325.68) rotate(-29.01)"/><rect class="cls-2" x="408.21" y="561.24" width="265.64" height="7.93" transform="translate(-206.24 333.36) rotate(-29.01)"/><circle class="cls-1" cx="420.86" cy="622.78" r="57"/><circle class="cls-1" cx="651.78" cy="491.83" r="57"/><circle class="cls-2" cx="420" cy="359" r="50"/><circle class="cls-2" cx="652" cy="492" r="50"/><circle class="cls-2" cx="421" cy="623" r="50"/></g></svg>