<svg xmlns="http://www.w3.org/2000/svg" viewBox="0 0 1000 1000"><defs><style>.cls-1{fill:#0097f4;}.cls-2{fill:#fff;}</style></defs><title>ubuntuDDE Official Logo</title><g id="ubuntuDDE_Official_Logo" data-name="ubuntuDDE Official Logo"><circle class="cls-1" cx="255" cy="500" r="116"/><rect class="cls-2" x="213.26" y="460.47" width="120.28" height="3.54" transform="matrix(0.87, 0.49, -0.49, 0.87, 260.44, -74.64)"/><rect class="cls-2" x="208.54" y="469.1" width="120.29" height="3.54" transform="translate(264.05 -71.25) rotate(29.22)"/><rect class="cls-2" x="156.58" y="496.49" width="113.24" height="3.54" transform="translate(-285.12 711.32) rotate(-89.99)"/><rect class="cls-2" x="166.4" y="496.4" width="113.24" height="3.54" transform="translate(-275.2 721.06) rotate(-89.99)"/><circle class="cls-1" cx="219.24" cy="437.03" r="25.43"/><rect class="cls-2" x="209.2" y="518.77" width="118.51" height="3.54" transform="translate(-218.79 195.54) rotate(-29.01)"/><rect class="cls-2" x="214.05" y="527.32" width="118.52" height="3.54" transform="translate(-222.33 198.97) rotate(-29.01)"/><circle class="cls-1" cx="219.69" cy="554.78" r="25.43"/><circle class="cls-1" cx="322.72" cy="496.35" r="25.43"/><circle class="cls-2" cx="219.31" cy="437.09" r="22.31"/><circle class="cls-2" cx="322.82" cy="496.43" r="22.31"/><circle class="cls-2" cx="219.75" cy="554.88" r="22.31"/><path d="M448.68,533q-2.88.72-7.6,1.53a65.43,65.43,0,0,1-10.94.81,23.17,23.17,0,0,1-9.09-1.58,14.58,14.58,0,0,1-5.94-4.45,18,18,0,0,1-3.24-6.8,35.39,35.39,0,0,1-1-8.68V487.58h8.37v24.48q0,8.55,2.7,12.24T431,528q1.35,0,2.79-.09c1-.06,1.86-.14,2.7-.23s1.61-.17,2.3-.26a7.25,7.25,0,0,0,1.48-.32V487.58h8.37Z"/><path d="M471.45,489.65a22.66,22.66,0,0,1,4.64-2.07,21.71,21.71,0,0,1,7.15-1.08,21.24,21.24,0,0,1,9,1.8,18.59,18.59,0,0,1,6.61,5,22.21,22.21,0,0,1,4.1,7.74,33.32,33.32,0,0,1,1.39,9.9,29.57,29.57,0,0,1-1.66,10.22,21.46,21.46,0,0,1-4.73,7.69,20.83,20.83,0,0,1-7.38,4.86,26.22,26.22,0,0,1-9.72,1.71,58.92,58.92,0,0,1-10.35-.81q-4.5-.81-7.38-1.62V466l8.37-1.44Zm0,37.44a25.73,25.73,0,0,0,3.56.67,41.33,41.33,0,0,0,5.71.32,13.92,13.92,0,0,0,10.8-4.45q4.05-4.46,4.05-12.65a30.24,30.24,0,0,0-.72-6.75,15.11,15.11,0,0,0-2.34-5.44,11.33,11.33,0,0,0-4.18-3.61,13.61,13.61,0,0,0-6.17-1.3,16.58,16.58,0,0,0-6.3,1.17,17.23,17.23,0,0,0-4.41,2.43Z"/><path d="M553.35,533q-2.88.72-7.6,1.53a65.43,65.43,0,0,1-10.94.81,23.17,23.17,0,0,1-9.09-1.58,14.58,14.58,0,0,1-5.94-4.45,18,18,0,0,1-3.24-6.8,35.39,35.39,0,0,1-1-8.68V487.58h8.37v24.48q0,8.55,2.7,12.24t9.09,3.69q1.35,0,2.79-.09c1-.06,1.86-.14,2.7-.23s1.61-.17,2.3-.26a7.25,7.25,0,0,0,1.48-.32V487.58h8.37Z"/><path d="M567.75,488.93q2.88-.72,7.65-1.53a66.19,66.19,0,0,1,11-.81,23.71,23.71,0,0,1,9.27,1.58,14.5,14.5,0,0,1,5.9,4.41,17.1,17.1,0,0,1,3.1,6.79,39.42,39.42,0,0,1,.9,8.73v26.28h-8.37V509.9a40,40,0,0,0-.58-7.38,12.48,12.48,0,0,0-1.94-4.95,7.65,7.65,0,0,0-3.6-2.74,15.58,15.58,0,0,0-5.58-.86q-1.35,0-2.79.09c-1,.06-1.88.14-2.74.23s-1.66.19-2.34.31l-1.49.27v39.51h-8.37Z"/><path d="M627.24,487.58H645v7H627.24v21.6a25.91,25.91,0,0,0,.54,5.8,8.6,8.6,0,0,0,1.62,3.6,5.76,5.76,0,0,0,2.7,1.85,12,12,0,0,0,3.78.54,17.59,17.59,0,0,0,6.08-.86c1.52-.56,2.59-1,3.19-1.21l1.62,6.93a31.23,31.23,0,0,1-4.41,1.57,25.07,25.07,0,0,1-7.2,1,22,22,0,0,1-7.87-1.21,11.51,11.51,0,0,1-5-3.65,14.56,14.56,0,0,1-2.66-6,39.36,39.36,0,0,1-.76-8.23V474.53l8.37-1.44Z"/><path d="M692.85,533q-2.88.72-7.61,1.53a65.3,65.3,0,0,1-10.93.81,23.17,23.17,0,0,1-9.09-1.58,14.58,14.58,0,0,1-5.94-4.45,18,18,0,0,1-3.24-6.8,35.39,35.39,0,0,1-1-8.68V487.58h8.37v24.48q0,8.55,2.7,12.24t9.09,3.69q1.35,0,2.79-.09c1-.06,1.86-.14,2.7-.23s1.6-.17,2.29-.26a7.39,7.39,0,0,0,1.49-.32V487.58h8.37Z"/><path d="M759,503.15a36.15,36.15,0,0,1-2.52,14.09,26,26,0,0,1-7.11,9.89,30,30,0,0,1-11,5.86,48.29,48.29,0,0,1-14,1.93q-3.78,0-8.33-.32a49.19,49.19,0,0,1-8.23-1.21V472.91A49.19,49.19,0,0,1,716,471.7q4.54-.31,8.33-.32a48.63,48.63,0,0,1,14,1.93,30.16,30.16,0,0,1,11,5.86,26,26,0,0,1,7.11,9.89A36.18,36.18,0,0,1,759,503.15Zm-33.93,24.12q12.42,0,18.54-6.35t6.12-17.77q0-11.43-6.12-17.77T725.07,479c-2.46,0-4.37,0-5.72.09s-2.29.12-2.83.18V527c.54.06,1.48.12,2.83.18S722.61,527.27,725.07,527.27Z"/><path d="M823.17,503.15a36.15,36.15,0,0,1-2.52,14.09,26,26,0,0,1-7.11,9.89,30,30,0,0,1-11,5.86,48.29,48.29,0,0,1-14,1.93q-3.78,0-8.33-.32a49.19,49.19,0,0,1-8.23-1.21V472.91a49.19,49.19,0,0,1,8.23-1.21q4.54-.31,8.33-.32a48.63,48.63,0,0,1,14,1.93,30.16,30.16,0,0,1,11,5.86,26,26,0,0,1,7.11,9.89A36.18,36.18,0,0,1,823.17,503.15Zm-33.93,24.12q12.42,0,18.54-6.35t6.12-17.77q0-11.43-6.12-17.77T789.24,479c-2.46,0-4.37,0-5.72.09s-2.29.12-2.83.18V527c.54.06,1.48.12,2.83.18S786.78,527.27,789.24,527.27Z"/><path d="M836.13,534.38V472H874.2v7.47H844.86V498H871v7.29h-26.1v21.6h31.59v7.47Z"/></g></svg>