<svg xmlns="http://www.w3.org/2000/svg" viewBox="0 0 1000 1000"><defs><style>.cls-1{fill:#f4f4f4;}.cls-2{fill:#0097f4;}</style></defs><title>ubuntuDDE Official Stacked Logo White</title><g id="ubuntuDDE_Official_Stacked_Logo_White" data-name="ubuntuDDE Official Stacked Logo White"><path class="cls-1" d="M231.5,728.19q-4,1-10.47,2.1A89.35,89.35,0,0,1,206,731.41a32,32,0,0,1-12.52-2.17,20.13,20.13,0,0,1-8.18-6.14,25,25,0,0,1-4.46-9.35,48.77,48.77,0,0,1-1.36-12V665.6H191v33.71q0,11.78,3.72,16.85t12.52,5.09c1.24,0,2.52,0,3.84-.13s2.56-.18,3.72-.31,2.21-.25,3.16-.37a9.58,9.58,0,0,0,2-.43V665.6H231.5Z"/><path class="cls-1" d="M262.85,668.45a31.22,31.22,0,0,1,6.39-2.85,30,30,0,0,1,9.85-1.49,29.22,29.22,0,0,1,12.33,2.48,25.61,25.61,0,0,1,9.11,6.94,30.61,30.61,0,0,1,5.64,10.66,45.86,45.86,0,0,1,1.92,13.63,40.63,40.63,0,0,1-2.29,14.07,29.57,29.57,0,0,1-6.51,10.59,28.64,28.64,0,0,1-10.16,6.7,36.14,36.14,0,0,1-13.39,2.35,81.49,81.49,0,0,1-14.25-1.11q-6.19-1.12-10.16-2.23V635.85l11.52-2Zm0,51.56a37.61,37.61,0,0,0,4.9.93,59.4,59.4,0,0,0,7.87.43q9.3,0,14.87-6.13t5.58-17.42a41.68,41.68,0,0,0-1-9.29,21.1,21.1,0,0,0-3.22-7.5,15.59,15.59,0,0,0-5.77-5,18.48,18.48,0,0,0-8.49-1.8,22.68,22.68,0,0,0-8.67,1.62,23.86,23.86,0,0,0-6.08,3.34Z"/><path class="cls-1" d="M375.63,728.19q-4,1-10.47,2.1a89.35,89.35,0,0,1-15.06,1.12,32,32,0,0,1-12.51-2.17,20.06,20.06,0,0,1-8.18-6.14,24.84,24.84,0,0,1-4.47-9.35,48.77,48.77,0,0,1-1.36-12V665.6h11.53v33.71q0,11.78,3.71,16.85t12.52,5.09c1.24,0,2.52,0,3.84-.13s2.56-.18,3.72-.31,2.21-.25,3.16-.37a9.58,9.58,0,0,0,2.05-.43V665.6h11.52Z"/><path class="cls-1" d="M395.46,667.46q4-1,10.54-2.11a91.42,91.42,0,0,1,15.12-1.11,32.57,32.57,0,0,1,12.76,2.17,19.87,19.87,0,0,1,8.12,6.07,23.42,23.42,0,0,1,4.27,9.36,54,54,0,0,1,1.24,12v36.19H436V696.33a54.75,54.75,0,0,0-.81-10.16,17.15,17.15,0,0,0-2.66-6.81,10.52,10.52,0,0,0-5-3.78,21.68,21.68,0,0,0-7.68-1.18c-1.24,0-2.52,0-3.85.12s-2.58.19-3.78.31-2.27.27-3.22.44-1.63.29-2,.37v54.41H395.46Z"/><path class="cls-1" d="M477.38,665.6H501.8v9.67H477.38V705a36.05,36.05,0,0,0,.74,8,12.09,12.09,0,0,0,2.23,5,8.05,8.05,0,0,0,3.72,2.54,16.4,16.4,0,0,0,5.21.75,24.54,24.54,0,0,0,8.36-1.18c2.11-.79,3.58-1.34,4.4-1.67l2.23,9.54a42.56,42.56,0,0,1-6.07,2.17,34.8,34.8,0,0,1-9.91,1.3,30.21,30.21,0,0,1-10.85-1.67,15.87,15.87,0,0,1-6.88-5,20.18,20.18,0,0,1-3.65-8.25,54.45,54.45,0,0,1-1.05-11.34v-57.5l11.52-2Z"/><path class="cls-1" d="M567.73,728.19q-4,1-10.47,2.1a89.35,89.35,0,0,1-15.06,1.12,32,32,0,0,1-12.52-2.17,20.13,20.13,0,0,1-8.18-6.14,24.83,24.83,0,0,1-4.46-9.35,48.77,48.77,0,0,1-1.36-12V665.6H527.2v33.71q0,11.78,3.72,16.85t12.52,5.09c1.24,0,2.52,0,3.84-.13s2.56-.18,3.72-.31,2.21-.25,3.16-.37a9.32,9.32,0,0,0,2-.43V665.6h11.53Z"/><path class="cls-1" d="M658.82,687a49.83,49.83,0,0,1-3.47,19.4,36.07,36.07,0,0,1-9.79,13.63,41.56,41.56,0,0,1-15.12,8,66.39,66.39,0,0,1-19.34,2.67q-5.21,0-11.46-.44a67.58,67.58,0,0,1-11.34-1.67V645.4a67.58,67.58,0,0,1,11.34-1.67q6.25-.43,11.46-.44A66.39,66.39,0,0,1,630.44,646a41.56,41.56,0,0,1,15.12,8,36,36,0,0,1,9.79,13.63A49.83,49.83,0,0,1,658.82,687ZM612.1,720.25q17.1,0,25.53-8.73T646.05,687q0-15.74-8.42-24.48t-25.53-8.73c-3.39,0-6,0-7.87.12s-3.17.17-3.91.25v65.68c.74.09,2,.17,3.91.25S608.71,720.25,612.1,720.25Z"/><path class="cls-1" d="M747.18,687a49.65,49.65,0,0,1-3.47,19.4,35.86,35.86,0,0,1-9.79,13.63,41.4,41.4,0,0,1-15.12,8,66.37,66.37,0,0,1-19.33,2.67q-5.21,0-11.47-.44a67.58,67.58,0,0,1-11.34-1.67V645.4A67.58,67.58,0,0,1,688,643.73q6.27-.43,11.47-.44A66.37,66.37,0,0,1,718.8,646a41.4,41.4,0,0,1,15.12,8,35.78,35.78,0,0,1,9.79,13.63A49.65,49.65,0,0,1,747.18,687Zm-46.72,33.21q17.1,0,25.53-8.73T734.42,687q0-15.74-8.43-24.48t-25.53-8.73q-5.09,0-7.87.12c-1.86.08-3.16.17-3.9.25v65.68c.74.09,2,.17,3.9.25S697.07,720.25,700.46,720.25Z"/><path class="cls-1" d="M765,730.05V644.16h52.42v10.28h-40.4V680H813v10H777.05v29.75h43.5v10.29Z"/><circle class="cls-1" cx="500" cy="427.18" r="158.71"/><rect class="cls-2" x="442.89" y="373.1" width="164.57" height="4.84" transform="translate(250.14 -208.59) rotate(29.22)"/><rect class="cls-2" x="436.44" y="384.9" width="164.58" height="4.84" transform="translate(255.08 -203.94) rotate(29.22)"/><rect class="cls-2" x="365.33" y="422.37" width="154.93" height="4.84" transform="translate(17.89 867.48) rotate(-89.99)"/><rect class="cls-2" x="378.78" y="422.25" width="154.94" height="4.84" transform="translate(31.46 880.81) rotate(-89.99)"/><circle class="cls-1" cx="451.08" cy="341.03" r="34.79"/><rect class="cls-2" x="437.34" y="452.87" width="162.15" height="4.84" transform="translate(-155.77 308.59) rotate(-29.01)"/><rect class="cls-2" x="443.97" y="464.56" width="162.16" height="4.84" transform="translate(-160.61 313.28) rotate(-29.01)"/><circle class="cls-1" cx="451.69" cy="502.13" r="34.79"/><circle class="cls-1" cx="592.65" cy="422.19" r="34.79"/><circle class="cls-2" cx="451.17" cy="341.11" r="30.52"/><circle class="cls-2" cx="592.79" cy="422.3" r="30.52"/><circle class="cls-2" cx="451.78" cy="502.26" r="30.52"/></g></svg>