<svg id="ubuntuDDE_Official_WordMark_White" data-name="ubuntuDDE Official WordMark White" xmlns="http://www.w3.org/2000/svg" viewBox="0 0 1000 1000"><defs><style>.cls-1{fill:#f4f4f4;}.cls-2{fill:#0097f4;}</style></defs><title>ubuntuDDE Official WordMark White</title><path class="cls-1" d="M168.33,564.73q-4.32,1.13-11.43,2.37a95.11,95.11,0,0,1-16.44,1.26,34,34,0,0,1-13.67-2.44,22.09,22.09,0,0,1-8.93-6.91A28.33,28.33,0,0,1,113,548.47,56.23,56.23,0,0,1,111.5,535V494.24h12.58v38q0,13.27,4.06,19t13.67,5.72c1.35,0,2.75,0,4.2-.14s2.79-.21,4.06-.35,2.41-.27,3.45-.41a9.73,9.73,0,0,0,2.23-.49V494.24h12.58Z"/><path class="cls-1" d="M202.57,497.45a32.79,32.79,0,0,1,7-3.21,31.68,31.68,0,0,1,10.75-1.68,31.07,31.07,0,0,1,13.47,2.79,28.29,28.29,0,0,1,10,7.82,34.89,34.89,0,0,1,6.15,12,53.1,53.1,0,0,1,2.1,15.35,47.3,47.3,0,0,1-2.5,15.84,33.53,33.53,0,0,1-7.11,11.94,31.25,31.25,0,0,1-11.09,7.54,38.55,38.55,0,0,1-14.62,2.65,85.71,85.71,0,0,1-15.56-1.26q-6.77-1.25-11.1-2.51v-104l12.59-2.23Zm0,58.07a39.07,39.07,0,0,0,5.34,1,62.3,62.3,0,0,0,8.6.49q10.14,0,16.23-6.91t6.09-19.61a48.48,48.48,0,0,0-1.08-10.47,23.76,23.76,0,0,0-3.52-8.44,17.11,17.11,0,0,0-6.29-5.59,19.7,19.7,0,0,0-9.27-2,24.25,24.25,0,0,0-9.47,1.81,25.66,25.66,0,0,0-6.63,3.77Z"/><path class="cls-1" d="M325.71,564.73q-4.33,1.13-11.44,2.37a95,95,0,0,1-16.44,1.26,34,34,0,0,1-13.66-2.44,22.13,22.13,0,0,1-8.94-6.91,28.49,28.49,0,0,1-4.87-10.54A56.75,56.75,0,0,1,268.87,535V494.24h12.59v38q0,13.27,4.06,19t13.66,5.72c1.36,0,2.76,0,4.2-.14s2.8-.21,4.06-.35,2.41-.27,3.45-.41a9.6,9.6,0,0,0,2.23-.49V494.24h12.59Z"/><path class="cls-1" d="M347.36,496.33c2.88-.74,6.72-1.54,11.5-2.37a96.21,96.21,0,0,1,16.51-1.26,34.86,34.86,0,0,1,13.94,2.44,21.88,21.88,0,0,1,8.86,6.84,26.85,26.85,0,0,1,4.67,10.54,63.19,63.19,0,0,1,1.35,13.54v40.76H391.61v-38a64.42,64.42,0,0,0-.88-11.44,19.89,19.89,0,0,0-2.91-7.68,11.63,11.63,0,0,0-5.41-4.26,23.26,23.26,0,0,0-8.39-1.32c-1.36,0-2.76.05-4.2.14s-2.82.21-4.13.35-2.48.3-3.51.48l-2.24.42v61.28H347.36Z"/><path class="cls-1" d="M436.8,494.24h26.66v10.88H436.8v33.51a41.53,41.53,0,0,0,.81,9,13.82,13.82,0,0,0,2.44,5.58,8.79,8.79,0,0,0,4.06,2.87,17.71,17.71,0,0,0,5.68.83,26.12,26.12,0,0,0,9.14-1.32c2.3-.89,3.9-1.51,4.8-1.89l2.44,10.75a45.85,45.85,0,0,1-6.63,2.44,36.56,36.56,0,0,1-10.83,1.47,32,32,0,0,1-11.84-1.88,17.33,17.33,0,0,1-7.51-5.66,22.9,22.9,0,0,1-4-9.28,62.83,62.83,0,0,1-1.15-12.77V474l12.58-2.24Z"/><path class="cls-1" d="M535.45,564.73q-4.34,1.13-11.43,2.37a95.15,95.15,0,0,1-16.45,1.26,34,34,0,0,1-13.66-2.44A22.09,22.09,0,0,1,485,559a28.51,28.51,0,0,1-4.88-10.54A56.77,56.77,0,0,1,478.62,535V494.24H491.2v38q0,13.27,4.06,19t13.67,5.72c1.35,0,2.75,0,4.19-.14s2.8-.21,4.06-.35,2.41-.27,3.45-.41a9.6,9.6,0,0,0,2.23-.49V494.24h12.59Z"/><path class="cls-1" d="M634.91,518.38a57.72,57.72,0,0,1-3.79,21.85,40.48,40.48,0,0,1-10.69,15.36,44.89,44.89,0,0,1-16.51,9.07,70.57,70.57,0,0,1-21.11,3q-5.68,0-12.52-.49a71.52,71.52,0,0,1-12.38-1.88V471.48a72.5,72.5,0,0,1,12.38-1.88q6.84-.5,12.52-.49a70.57,70.57,0,0,1,21.11,3,45,45,0,0,1,16.51,9.07,40.48,40.48,0,0,1,10.69,15.36A57.7,57.7,0,0,1,634.91,518.38Zm-51,37.42q18.68,0,27.88-9.84t9.2-27.58q0-17.72-9.2-27.56T583.89,481q-5.55,0-8.59.13c-2,.1-3.45.19-4.26.28v74c.81.09,2.23.19,4.26.28S580.19,555.8,583.89,555.8Z"/><path class="cls-1" d="M731.39,518.38q0,12.57-3.79,21.85a40.37,40.37,0,0,1-10.69,15.36,44.81,44.81,0,0,1-16.51,9.07,70.52,70.52,0,0,1-21.11,3q-5.68,0-12.51-.49a71.49,71.49,0,0,1-12.39-1.88V471.48a72.47,72.47,0,0,1,12.39-1.88q6.83-.5,12.51-.49a70.52,70.52,0,0,1,21.11,3,45,45,0,0,1,16.51,9.07,40.37,40.37,0,0,1,10.69,15.36Q731.4,505.83,731.39,518.38Zm-51,37.42q18.66,0,27.87-9.84t9.2-27.58q0-17.72-9.2-27.56T680.38,481q-5.55,0-8.6.13c-2,.1-3.45.19-4.26.28v74c.81.09,2.23.19,4.26.28S676.68,555.8,680.38,555.8Z"/><path class="cls-1" d="M750.88,566.82V470.09h57.24v11.58H764v28.76h39.25v11.31H764v33.5h47.5v11.58Z"/><circle class="cls-1" cx="857.5" cy="462.5" r="31"/><rect class="cls-2" x="846.35" y="451.94" width="32.14" height="0.95" transform="translate(330.6 -363.44) rotate(29.22)"/><rect class="cls-2" x="845.08" y="454.24" width="32.15" height="0.95" transform="translate(331.56 -362.53) rotate(29.22)"/><rect class="cls-2" x="831.2" y="461.56" width="30.26" height="0.95" transform="translate(384.07 1308.24) rotate(-89.99)"/><rect class="cls-2" x="833.82" y="461.54" width="30.26" height="0.95" transform="translate(386.72 1310.84) rotate(-89.99)"/><circle class="cls-1" cx="847.94" cy="445.67" r="6.8"/><rect class="cls-2" x="845.26" y="467.52" width="31.67" height="0.95" transform="translate(-118.92 476.4) rotate(-29.01)"/><rect class="cls-2" x="846.56" y="469.8" width="31.67" height="0.95" transform="translate(-119.86 477.31) rotate(-29.01)"/><circle class="cls-1" cx="848.06" cy="477.14" r="6.8"/><circle class="cls-1" cx="875.6" cy="461.53" r="6.8"/><circle class="cls-2" cx="847.96" cy="445.69" r="5.96"/><circle class="cls-2" cx="875.62" cy="461.55" r="5.96"/><circle class="cls-2" cx="848.08" cy="477.17" r="5.96"/></svg>